<svg xmlns="http://www.w3.org/2000/svg" width="24" height="27" viewBox="0 0 24 27" fill="none">
  <path d="M9.52804 1.68716C9.72725 1.18867 10.069 0.761772 10.5094 0.46118C10.9498 0.160588 11.4688 0 12 0C12.5311 0 13.0502 0.160588 13.4906 0.46118C13.931 0.761772 14.2727 1.18867 14.472 1.68716C16.4439 2.23551 18.1834 3.42441 19.423 5.07107C20.6627 6.71773 21.3338 8.73101 21.3332 10.8014V17.1417L23.7758 20.8511C23.9098 21.0544 23.9867 21.2907 23.9984 21.5348C24.0101 21.7789 23.9562 22.0216 23.8423 22.2371C23.7284 22.4526 23.5589 22.6327 23.3518 22.7583C23.1447 22.8839 22.9079 22.9502 22.6665 22.9501H16.6199C16.4594 24.0747 15.904 25.1031 15.0555 25.8468C14.2071 26.5906 13.1223 27 12 27C10.8777 27 9.79291 26.5906 8.94445 25.8468C8.09598 25.1031 7.54061 24.0747 7.38008 22.9501H1.33351C1.09212 22.9502 0.855256 22.8839 0.648177 22.7583C0.441098 22.6327 0.271576 22.4526 0.157698 22.2371C0.0438206 22.0216 -0.0101408 21.7789 0.00157044 21.5348C0.0132817 21.2907 0.0902264 21.0544 0.224196 20.8511L2.66682 17.1417V10.8014C2.66682 6.44946 5.57344 2.78324 9.52804 1.68716ZM10.1147 22.9501C10.2524 23.3452 10.5077 23.6872 10.8455 23.9292C11.1833 24.1711 11.5869 24.3011 12.0007 24.3011C12.4144 24.3011 12.818 24.1711 13.1558 23.9292C13.4936 23.6872 13.7489 23.3452 13.8866 22.9501H10.1147ZM12 4.05211C10.2319 4.05211 8.53625 4.76319 7.28603 6.02893C6.03581 7.29467 5.33344 9.01138 5.33344 10.8014V17.5507C5.3335 17.8173 5.25556 18.078 5.10945 18.2999L3.82547 20.2504H20.1732L18.8892 18.2999C18.7436 18.0779 18.6661 17.8172 18.6666 17.5507V10.8014C18.6666 9.01138 17.9642 7.29467 16.714 6.02893C15.4637 4.76319 13.7681 4.05211 12 4.05211Z" fill="#2D2D2D"/>
</svg>