<svg xmlns="http://www.w3.org/2000/svg" width="127" height="35" viewBox="0 0 127 35" fill="none">
  <path d="M52.2584 17.6713C51.6087 18.8531 50.6143 20.0684 49.1023 20.8676C48.2636 21.311 47.5258 21.3669 46.8582 21.2244C46.1646 21.0763 45.4874 20.6998 44.8315 20.1849C44.1767 19.671 43.5918 19.059 43.0697 18.4892C42.9965 18.4093 42.9231 18.3286 42.8504 18.2487C42.7013 18.0849 42.5551 17.9242 42.4198 17.7803C42.7294 17.9951 43.0523 18.2022 43.3886 18.4003C46.4406 20.1975 49.4719 19.2872 51.5806 18.0853C51.8159 17.9512 52.0421 17.8123 52.2584 17.6713ZM37.7806 12.4307C38.4659 13.9045 39.6072 15.4741 41.2103 16.8469C40.9592 16.7633 40.6901 16.7424 40.4165 16.794C40.0131 16.87 39.6909 17.086 39.4535 17.3002C38.9884 17.7198 38.609 18.3517 38.3082 18.9815C37.692 20.2719 37.2076 21.983 37.0187 23.3329C36.9217 24.026 37.2305 24.6537 37.5757 25.1219C37.9371 25.6123 38.4489 26.0811 39.0371 26.5083C40.2186 27.3662 41.8496 28.1579 43.6462 28.6692C47.1891 29.6775 51.7797 29.6869 54.8057 26.3535L54.8245 26.3328L54.842 26.3111C58.7735 21.4617 59.8394 16.297 59.8155 12.1808C59.8146 12.0164 59.8119 11.8536 59.8076 11.6925C59.8265 11.7382 59.8463 11.7826 59.867 11.8259C60.1201 12.3529 60.4971 12.7456 60.9972 12.9738C61.4657 13.1876 61.9536 13.2155 62.3637 13.1976C62.7307 13.1816 63.1246 13.1226 63.4761 13.0699C63.5131 13.0643 63.5497 13.0588 63.5857 13.0535C63.9866 12.9939 64.3651 12.9419 64.7483 12.9287C65.4387 12.9048 65.991 12.6534 66.3694 12.1563C66.5305 11.9447 66.632 11.7239 66.702 11.5503C66.7434 11.4473 66.7918 11.3117 66.8298 11.205C66.8468 11.1573 66.8618 11.1153 66.8731 11.0847C66.9706 10.8218 67.0505 10.673 67.1735 10.5541C67.2876 10.4438 67.5191 10.2841 68.0405 10.1776C68.2931 10.1501 68.4657 10.1972 68.5998 10.2704C68.7511 10.3531 68.9159 10.5046 69.0815 10.7642C69.4264 11.305 69.6665 12.1422 69.8091 13.1183C69.874 13.5625 69.9157 14.0127 69.9414 14.4432C69.5193 14.204 69.0446 14.0333 68.5195 13.9371C66.9932 13.6577 65.1493 14.0271 63.07 14.9035C61.8342 15.4244 60.7105 16.4952 59.8703 17.7395C59.0231 18.994 58.3977 20.5217 58.2394 22.0601C58.0802 23.6071 58.3921 25.2269 59.5091 26.528C60.6233 27.8259 62.4122 28.6595 64.9089 28.8989C69.9449 29.3819 73.5611 27.2954 75.7448 23.9743C76.8615 22.2761 77.5929 20.2752 77.9716 18.1602C78.024 19.1551 78.0759 20.1067 78.1236 20.9811C78.2486 23.2737 78.3446 25.0357 78.3446 25.6567C78.3446 26.4024 78.5202 27.0767 78.964 27.5965C79.4076 28.1163 79.9995 28.341 80.5421 28.4332C81.0751 28.5238 81.6439 28.5014 82.1568 28.4557C82.4667 28.4282 82.8139 28.3854 83.1385 28.3453C83.3301 28.3217 83.5139 28.2991 83.6774 28.2811C85.6578 28.0635 87.4695 26.6099 88.9443 24.0487C89.1921 24.95 89.4886 25.9577 89.7994 26.8559C90.4229 28.6578 92.2719 29.0796 93.7304 29.0853C95.2653 29.0913 96.9297 28.6663 98.0547 28.211C98.8374 27.8942 99.396 27.2882 99.7969 26.6358C100.198 25.983 100.483 25.2177 100.695 24.4638C101.047 23.2102 101.237 21.8357 101.376 20.8283C101.403 20.633 101.428 20.4515 101.452 20.2874C101.502 19.943 101.642 19.2653 101.833 18.3442C101.915 17.9478 102.006 17.5064 102.104 17.027C102.38 15.6672 102.696 14.0494 102.954 12.4319C102.952 13.0122 102.95 13.6266 102.948 14.2602C102.938 17.6461 102.938 21.5912 102.978 23.7889C102.998 24.9031 103.075 25.8155 103.252 26.5426C103.431 27.2771 103.736 27.9187 104.286 28.3746C104.834 28.8287 105.491 28.9859 106.13 29.0357C106.758 29.0846 107.492 29.0368 108.277 28.9777C108.524 28.959 108.779 28.9436 109.031 28.9283C109.519 28.8987 109.999 28.8696 110.411 28.8182C111.063 28.7365 111.748 28.5816 112.352 28.1715C113.603 27.3207 114.065 25.6962 114.224 23.196C114.374 20.8256 115.107 19.1873 115.73 18.4991C115.831 18.3873 115.911 18.3195 115.968 18.2787C116.001 18.3467 116.043 18.453 116.085 18.6154C116.211 19.1007 116.188 19.8642 116.042 20.8751C115.944 21.5542 115.807 22.2559 115.667 22.9723C115.602 23.3052 115.536 23.6412 115.473 23.9796C115.286 24.9882 115.119 26.0538 115.182 26.904C115.213 27.3309 115.309 27.8194 115.586 28.2358C115.895 28.7028 116.372 28.9891 116.95 29.0492C117.265 29.0819 117.579 29.13 117.937 29.1849C118.254 29.2336 118.607 29.2877 119.026 29.3411C119.831 29.4438 120.752 29.5209 121.63 29.4298C122.507 29.339 123.444 29.0705 124.178 28.3903C124.934 27.6901 125.339 26.6817 125.387 25.3945C125.389 25.333 125.391 25.2688 125.394 25.2021C125.479 22.9106 125.675 17.6243 125.162 12.7675C124.9 10.2768 124.444 7.82129 123.65 5.92057C122.874 4.06125 121.632 2.41575 119.634 2.19467C116.454 1.84287 114.356 2.86978 112.969 4.57359C112.935 4.61526 112.902 4.65728 112.869 4.69963C112.867 4.69279 112.866 4.68595 112.864 4.67912C112.706 3.96482 112.305 2.95993 111.235 2.69301L111.174 2.6776C110.236 2.44303 108.288 1.95576 106.531 2.40644C105.588 2.6484 104.667 3.16623 103.996 4.13214C103.722 4.52751 103.501 4.98099 103.336 5.49536C103.279 5.19462 103.201 4.91019 103.093 4.6537C102.855 4.08221 102.38 3.46218 101.537 3.36348C101.218 3.32616 100.901 3.28055 100.576 3.23375L100.561 3.23163C100.236 3.18482 99.8993 3.13659 99.571 3.09979C98.9264 3.02754 98.2241 2.9875 97.5611 3.11717C96.8657 3.25316 96.1994 3.57907 95.6836 4.22501C95.1874 4.84628 94.9012 5.67574 94.768 6.69244C94.6919 7.27356 94.6077 7.88765 94.5199 8.50945C94.4201 8.25645 94.309 8.0141 94.1852 7.78768C93.6829 6.86863 92.8123 5.961 91.4588 6.06571C90.2971 6.15559 89.2987 6.92898 88.525 7.75196C87.9114 8.40458 87.3438 9.19144 86.8423 9.98722C86.8432 9.80443 86.8419 9.62045 86.8382 9.43589C86.8078 7.9218 86.614 6.28165 86.0404 4.93074C85.4624 3.56945 84.4431 2.39762 82.7664 2.0911C82.7439 2.08436 82.7166 2.07635 82.6849 2.06732C82.5944 2.04157 82.4673 2.00735 82.3131 1.97101C82.0077 1.89905 81.5813 1.81533 81.1143 1.77605C80.6551 1.73743 80.1068 1.73719 79.578 1.8641C79.045 1.99203 78.4534 2.27024 78.0474 2.84761L78.8626 3.42086L78.0474 2.84761C77.8558 3.12009 77.7812 3.46086 77.7421 3.66933C77.6939 3.92663 77.6598 4.23298 77.6349 4.56698C77.5847 5.23817 77.5654 6.10655 77.5672 7.09412C77.5686 7.86813 77.5829 8.7269 77.6068 9.6385C76.67 6.77083 74.7908 4.9006 72.5976 3.83151C69.8724 2.50306 66.7188 2.43421 64.3897 3.07508C61.8807 3.76546 60.5327 5.55466 59.9272 7.3145C59.7446 7.84548 59.6271 8.3782 59.5626 8.88616C59.4569 8.17524 59.3261 7.52569 59.1864 6.9494C58.8589 5.59906 58.4652 4.58204 58.1909 4.11858C57.9598 3.72823 57.5996 3.46881 57.2751 3.29639C56.9374 3.11699 56.55 2.98495 56.154 2.89058C55.3621 2.70183 54.4234 2.6373 53.5218 2.71851C52.6324 2.79863 51.6817 3.02941 50.9274 3.51223C50.1354 4.0193 49.5229 4.84263 49.5564 5.98552C49.5904 7.14752 49.1529 8.24153 48.5464 9.05951C48.2448 9.46635 47.9174 9.78251 47.6181 9.99321C47.3039 10.2144 47.089 10.2725 47.0039 10.2778C46.8402 10.2878 46.7746 10.2706 46.758 10.2644C46.7441 10.2526 46.6894 10.1969 46.6101 10.0206C46.3703 9.48784 46.1757 8.51551 45.8313 6.67251C45.6264 5.57651 45.0931 4.72195 44.1453 4.37869C43.2949 4.07071 42.386 4.28796 41.6693 4.57412C40.2067 5.15806 38.6878 6.3863 37.9167 7.03323C37.1916 7.64148 36.9781 8.59141 37.0018 9.46904C37.0263 10.3747 37.3007 11.3989 37.7806 12.4307ZM115.894 18.1689C115.894 18.1684 115.897 18.1708 115.903 18.1771C115.896 18.1725 115.894 18.1693 115.894 18.1689ZM46.7535 10.2624C46.7536 10.2623 46.7548 10.2628 46.7571 10.2641C46.7545 10.2631 46.7534 10.2624 46.7535 10.2624ZM46.7589 10.2652C46.7606 10.2663 46.7615 10.267 46.7615 10.267C46.7615 10.2671 46.7606 10.2666 46.7589 10.2652ZM68.1268 20.9411C68.1291 20.9534 68.1312 20.9649 68.1331 20.9755C68.1302 20.9996 68.126 21.0296 68.1197 21.0646C68.098 21.1845 68.0545 21.3459 67.9704 21.5115C67.8207 21.8061 67.5138 22.1853 66.7417 22.3318C66.2396 22.4255 65.6941 22.1045 65.4766 21.4491C65.2869 20.8775 65.3935 20.0738 66.3836 19.4517C66.9106 19.1206 67.1545 19.1702 67.2273 19.193C67.3345 19.2265 67.4928 19.3384 67.6691 19.6326C67.8402 19.918 67.9636 20.2702 68.0448 20.5778C68.084 20.7263 68.1104 20.8533 68.1268 20.9411Z" fill="#FF9900" stroke="#400072" strokeWidth="2"/>
  <path d="M31.2656 22.1524C29.4806 22.1737 27.6958 22.1006 25.9187 21.9337C22.3541 21.6342 19.8771 21.4964 18.1129 21.5323C17.2367 21.5297 16.3627 21.6201 15.5059 21.8019C15.0081 21.9031 14.5407 22.1174 14.1405 22.428C13.9229 22.6083 13.7308 22.8169 13.5696 23.0481C13.2681 23.4399 13.1037 23.9184 13.1013 24.4112C13.1054 24.6639 13.1718 24.9118 13.2947 25.1332C13.44 25.3887 13.6478 25.604 13.8988 25.7593C14.4758 26.1337 15.4425 26.3914 16.9197 26.3584L17.3607 26.3404C17.3607 26.2326 17.3607 26.1248 17.3607 26.0199C17.3607 25.9151 17.3607 25.8551 17.3607 25.7743C17.3607 25.3968 17.397 25.0613 17.4362 24.7677C17.4544 24.6269 17.4785 24.5011 17.5057 24.3782C17.2731 24.3782 16.9559 24.4022 16.5995 24.4412C16.166 24.4853 15.7374 24.5675 15.3186 24.6868C15.2835 24.6972 15.2467 24.7007 15.2102 24.697C15.1738 24.6933 15.1384 24.6825 15.1061 24.6653C15.0739 24.648 15.0454 24.6247 15.0222 24.5965C14.9991 24.5683 14.9817 24.5359 14.9712 24.5011C14.9607 24.4663 14.9572 24.4297 14.9609 24.3936C14.9647 24.3574 14.9755 24.3223 14.9929 24.2903C15.0103 24.2584 15.0339 24.2301 15.0623 24.2071C15.0907 24.1842 15.1234 24.167 15.1585 24.1566C15.61 24.0282 16.072 23.939 16.539 23.8899C16.974 23.842 17.3577 23.827 17.6024 23.824H17.7021C17.7561 23.7129 17.8286 23.6117 17.9165 23.5245C18.0464 23.3942 18.2127 23.3055 18.3938 23.2698C18.5193 23.2453 18.6466 23.2313 18.7745 23.2279C18.9089 23.2265 19.0432 23.2356 19.1762 23.2548C19.2763 23.2686 19.3773 23.2756 19.4783 23.2758C19.5587 23.2736 19.6386 23.2636 19.717 23.2459C19.7714 23.233 19.8271 23.226 19.8831 23.2249C20.0186 23.2207 20.1516 23.2619 20.2607 23.3417C20.3479 23.4084 20.4166 23.496 20.4601 23.5964C20.4674 23.6108 20.4735 23.6258 20.4782 23.6413L20.7229 23.6233C21.025 23.6053 21.4177 23.5874 21.9463 23.5784C23.3389 23.5514 25.5562 23.5784 28.4864 23.7851C30.2445 23.9109 31.767 23.9738 33.0418 23.9499C33.8304 23.943 34.6172 23.8749 35.3951 23.7461C35.9253 23.6677 36.4369 23.4952 36.9055 23.2369C37.124 23.1126 37.311 22.9404 37.4522 22.7336C37.6336 22.4996 37.7389 22.2165 37.7543 21.9217C37.7509 21.792 37.7146 21.6653 37.6486 21.5533C37.5811 21.4358 37.4895 21.3338 37.3797 21.2537C37.1839 21.1145 36.9587 21.0213 36.7212 20.9811C36.691 21.0081 36.6608 21.038 36.6215 21.068C36.3831 21.255 36.1158 21.4026 35.8301 21.5053C35.0477 21.8079 33.6822 22.1045 31.2656 22.1524Z" fill="#693691"/>
  <path d="M26.68 14.0669L26.7283 14.1388C27.0845 14.1813 27.4356 14.2585 27.7765 14.3695C27.8883 14.4055 28.0061 14.4474 28.1269 14.4953H28.1723L28.3535 14.5403C28.5106 14.5762 28.7462 14.6242 29.0483 14.6691C29.7322 14.7732 30.4227 14.8283 31.1145 14.8339C29.7461 14.744 29.302 13.9831 29.1782 13.5008C28.4411 13.4049 27.6678 13.2761 26.8129 13.0993C26.8177 13.1821 26.8177 13.2652 26.8129 13.348C26.8172 13.4754 26.808 13.6029 26.7857 13.7284C26.7728 13.847 26.7369 13.9619 26.68 14.0669Z" fill="white"/>
  <path d="M19.1792 25.0822C19.2823 24.8627 19.4056 24.6531 19.5478 24.4561C19.6782 24.2705 19.8205 24.0934 19.9737 23.9259V23.9079C19.9678 23.8712 19.9555 23.8357 19.9375 23.8031C19.9326 23.7943 19.9265 23.7862 19.9193 23.7791H19.8891C19.8711 23.7766 19.8528 23.7766 19.8348 23.7791C19.719 23.8068 19.6004 23.8209 19.4813 23.821C19.3524 23.8267 19.2232 23.8237 19.0947 23.8121C18.9865 23.7975 18.8775 23.7905 18.7684 23.7911C18.675 23.7919 18.5819 23.802 18.4905 23.821C18.416 23.8358 18.3476 23.8723 18.2941 23.9259C18.2201 24.007 18.1626 24.1016 18.125 24.2045C18.0521 24.4079 18.0034 24.619 17.98 24.8336C17.9397 25.1497 17.9165 25.4677 17.9105 25.7862C17.9105 25.8581 17.9105 25.93 17.9105 26.0019C17.9138 26.1874 17.929 26.3725 17.9558 26.5561C17.999 26.8951 18.0748 27.2291 18.1824 27.5537C18.2631 27.8119 18.3812 28.0571 18.5328 28.2817C18.5844 28.3645 18.6547 28.4342 18.7382 28.4854C18.7536 28.4949 18.7714 28.5001 18.7896 28.5004H18.8047C18.8219 28.485 18.8362 28.4668 18.847 28.4464C18.9005 28.3403 18.9352 28.2258 18.9497 28.1079C18.9999 27.7266 19.0161 27.3417 18.998 26.9576C18.998 26.8018 18.998 26.658 18.998 26.5022C18.998 26.4183 18.998 26.3345 18.998 26.2566C18.998 26.1008 18.998 25.957 18.998 25.8282C19.0112 25.5705 19.0727 25.3176 19.1792 25.0822Z" fill="#75FCFC"/>
  <path d="M37.0384 23.7911C36.7504 23.9411 36.4465 24.0586 36.1321 24.1416C35.1195 24.3847 34.0807 24.5045 33.0388 24.4981C31.7368 24.525 30.1992 24.4591 28.432 24.3333C25.5169 24.1236 23.3178 24.0996 21.9433 24.1266C21.5143 24.1266 21.167 24.1506 20.9041 24.1625L20.4812 24.1925L20.451 24.2225L20.4329 24.2374L20.3725 24.3004C20.3211 24.3573 20.2486 24.4412 20.1701 24.543C19.9781 24.7761 19.8158 25.0316 19.6867 25.3039C19.6029 25.4715 19.5526 25.6536 19.5387 25.8402C19.5387 25.939 19.5387 26.0618 19.5387 26.1967H19.9918C22.1427 26.1547 24.4355 26.2925 26.5652 26.4333C28.6949 26.5741 30.6705 26.7179 32.1688 26.688C32.5727 26.6833 32.9761 26.6573 33.3771 26.6101C34.1054 26.5264 34.8263 26.3892 35.534 26.1996C36.0697 26.0657 36.5799 25.8462 37.0444 25.5496C37.2402 25.4256 37.3988 25.2518 37.5036 25.0463C37.5466 24.9523 37.5673 24.8498 37.564 24.7467C37.5542 24.5784 37.5034 24.415 37.416 24.2704C37.3106 24.0958 37.1837 23.9348 37.0384 23.7911Z" fill="#693691"/>
  <path d="M37.5882 14.0939C35.6916 14.9137 33.6513 15.3564 31.5828 15.3971C30.8946 15.4112 30.2063 15.3792 29.5226 15.3012C29.7393 15.4742 29.9414 15.6646 30.1267 15.8704C30.7098 16.5213 31.1391 17.2929 31.3834 18.1292C31.3969 18.1969 31.3846 18.2672 31.3488 18.3264C31.313 18.3856 31.2564 18.4295 31.1898 18.4497C31.1232 18.4698 31.0514 18.4647 30.9884 18.4354C30.9254 18.4061 30.8756 18.3546 30.8487 18.2909C30.6312 17.5422 30.2507 16.8499 29.734 16.2628C29.3356 15.8202 28.8571 15.4554 28.3233 15.1874C27.8555 14.9539 27.3542 14.7932 26.837 14.711C26.8284 14.7506 26.8173 14.7896 26.8038 14.8279C26.767 14.9362 26.7236 15.0423 26.6739 15.1454C26.5275 15.451 26.3568 15.7445 26.1634 16.0232C25.5924 16.8428 24.8546 17.5347 23.9975 18.0543C23.2726 18.4899 22.4693 18.7819 21.6322 18.914C21.0327 19.0112 20.427 19.0663 19.8197 19.0788C17.4362 19.1297 16.2944 18.4018 16.2551 18.3748C16.1985 18.333 16.16 18.2713 16.1476 18.2024C16.1351 18.1335 16.1496 18.0624 16.188 18.0037C16.2265 17.945 16.286 17.9029 16.3546 17.8862C16.4232 17.8694 16.4956 17.8792 16.5572 17.9135L16.5874 17.9314L16.7263 18.0003C16.9161 18.0888 17.1119 18.1639 17.3124 18.225C18.1201 18.4538 18.9591 18.5549 19.7985 18.5246C20.3774 18.5105 20.9547 18.4575 21.5264 18.3658C22.7043 18.1784 23.8008 17.6524 24.6802 16.853C25.2844 16.3137 25.7823 15.6676 26.1483 14.9477C26.1969 14.8502 26.2403 14.7502 26.2782 14.6481C26.2793 14.6282 26.2793 14.6082 26.2782 14.5882C26.2751 14.5341 26.2585 14.4816 26.2299 14.4354L26.2057 14.3995C24.3932 15.1454 22.3028 15.415 20.3453 15.454C18.0608 15.4841 15.7798 15.2681 13.5424 14.8099C13.5067 14.8018 13.4729 14.7869 13.443 14.7659C13.4132 14.7449 13.3878 14.7182 13.3683 14.6875C13.3289 14.6254 13.316 14.5504 13.3324 14.4789C13.3489 14.4074 13.3933 14.3452 13.4558 14.3062C13.5184 14.2672 13.5941 14.2544 13.6662 14.2707H13.6934L13.7961 14.2946L14.1949 14.3725C14.0772 13.8934 14.0264 13.4005 14.0438 12.9076L13.9472 12.8896C13.9115 12.8818 13.8777 12.867 13.8477 12.8462C13.8178 12.8254 13.7923 12.7989 13.7726 12.7683C13.753 12.7377 13.7396 12.7036 13.7333 12.6678C13.727 12.6321 13.7278 12.5955 13.7357 12.5601C13.7436 12.5247 13.7585 12.4912 13.7795 12.4615C13.8005 12.4318 13.8272 12.4065 13.8581 12.387C13.8889 12.3675 13.9233 12.3543 13.9594 12.348C13.9954 12.3417 14.0323 12.3425 14.068 12.3504C16.468 12.8891 18.9241 13.1426 21.3845 13.1053C22.5359 13.0831 23.6845 12.983 24.8222 12.8057C25.7284 12.6649 26.4292 12.5062 26.8673 12.4043C26.9981 12.3757 27.1264 12.3366 27.2509 12.2875C27.3132 12.2651 27.3714 12.2327 27.4231 12.1916C27.3981 12.157 27.3687 12.1258 27.3355 12.0988C27.2827 12.055 27.226 12.0159 27.1663 11.9819L27.0636 11.928L27.0304 11.8112C26.7108 10.5316 25.9659 9.39606 24.9158 8.58776C23.8827 7.81186 22.4991 7.34154 20.7742 7.27263H20.4873C19.7511 7.29197 19.0249 7.44636 18.3455 7.72799C17.7548 7.97389 17.1985 8.29406 16.6901 8.68063C16.1385 9.08944 15.6429 9.56779 15.2159 10.1036C15.1941 10.1327 15.1667 10.1573 15.1353 10.1759C15.1039 10.1945 15.0691 10.2068 15.033 10.2121C14.9968 10.2174 14.9599 10.2155 14.9244 10.2067C14.889 10.1978 14.8556 10.1822 14.8262 10.1605C14.7969 10.1389 14.7721 10.1117 14.7533 10.0806C14.7346 10.0495 14.7222 10.015 14.7168 9.97908C14.7115 9.9432 14.7133 9.90662 14.7223 9.87145C14.7312 9.83627 14.747 9.80318 14.7688 9.77407C15.0355 9.43171 15.3316 9.11297 15.6539 8.82143C16.3705 8.15246 17.1997 7.61307 18.1038 7.2277C18.8567 6.91051 19.6634 6.7377 20.4812 6.71843C20.6021 6.71843 20.7259 6.71843 20.8528 6.71843C22.6653 6.79032 24.1757 7.28761 25.3085 8.14439C25.6821 8.42519 26.0208 8.749 26.3175 9.10902C26.6944 8.67706 27.1178 8.28729 27.5802 7.94667C28.7481 7.04855 30.1721 6.53902 31.6492 6.49075C31.7791 6.49075 31.909 6.49075 32.0419 6.49075C32.6802 6.51309 33.3147 6.59839 33.936 6.74539C32.2649 5.01465 30.2126 3.69094 27.9396 2.8779C25.8405 2.14576 23.6239 1.80156 21.3996 1.86235C19.557 1.88689 17.7268 2.16619 15.9621 2.69217L15.8745 2.72213L15.7838 2.69516C14.5919 2.30474 13.3413 2.11933 12.0863 2.14694C10.4586 2.18982 8.8524 2.52686 7.34666 3.14153C6.04663 3.67148 4.82674 4.37717 3.72166 5.23854C3.16715 5.65431 2.66061 6.12951 2.21125 6.65551C1.73476 7.24125 1.33673 7.8857 1.02708 8.57278C0.72934 9.18158 0.566589 9.84658 0.549791 10.523C0.542279 10.8631 0.639203 11.1974 0.827707 11.4816C1.05266 11.7732 1.37318 11.9777 1.73396 12.0598C2.0918 12.1514 2.46121 12.1908 2.83052 12.1766C2.99062 12.1766 3.15979 12.1766 3.34104 12.1467C4.46035 12.0134 5.5473 11.6859 6.55218 11.1791C7.55235 10.6892 8.50404 10.1075 9.39478 9.44154C10.4223 8.68143 11.3834 7.83663 12.2676 6.91615C12.2916 6.88591 12.3216 6.86093 12.3558 6.84278C12.39 6.82462 12.4277 6.8137 12.4664 6.81069C12.505 6.80767 12.5439 6.81263 12.5806 6.82526C12.6172 6.83789 12.6508 6.85791 12.6793 6.88406C12.7078 6.91021 12.7305 6.94192 12.7459 6.97719C12.7614 7.01247 12.7694 7.05055 12.7693 7.08902C12.7692 7.1275 12.7611 7.16554 12.7455 7.20075C12.7298 7.23596 12.707 7.26758 12.6784 7.29361C12.1411 7.85021 11.5744 8.3782 10.9807 8.87535C9.72012 9.96018 8.33025 10.8878 6.84218 11.6374C6.5401 11.7872 6.21989 11.937 5.89968 12.0478C5.89968 12.0838 5.89968 12.1227 5.89968 12.1677C5.87551 12.3444 5.84228 12.605 5.81208 12.9346C5.72894 13.8308 5.69667 14.7309 5.71541 15.6307C5.73941 17.5159 6.02504 19.3889 6.56426 21.1968C7.16597 23.2722 8.28843 25.1625 9.82676 26.6909C11.0295 27.8364 12.4638 28.7155 14.0348 29.2703C16.5296 30.1952 19.1775 30.6474 21.8406 30.6034C26.7072 30.5075 30.4953 28.6981 32.6733 27.4579C32.8394 27.365 32.9935 27.2751 33.1385 27.1882C32.8364 27.2152 32.5343 27.2302 32.196 27.2362C30.6524 27.2661 28.6737 27.1223 26.544 26.9815C24.4143 26.8407 22.1366 26.7059 20.019 26.7479H19.5659C19.5659 26.8078 19.5659 26.8707 19.5659 26.9306C19.5659 27.2122 19.5659 27.5028 19.5659 27.7754C19.5565 28.0287 19.5128 28.2796 19.436 28.5213C19.3886 28.6732 19.2998 28.809 19.1792 28.9138C19.102 28.9779 19.0094 29.0213 18.9104 29.0396C18.8772 29.0426 18.8439 29.0426 18.8107 29.0396C18.7054 29.0391 18.6018 29.0134 18.5086 28.9647C18.4157 28.9151 18.3311 28.8514 18.2579 28.776C18.1019 28.6088 17.9743 28.4176 17.8803 28.2098C17.6826 27.7838 17.5434 27.3334 17.4664 26.8707C17.2942 26.8707 17.1251 26.8887 16.962 26.8917C16.0389 26.9406 15.1152 26.8093 14.2432 26.5052C13.6565 26.3043 13.1594 25.9057 12.8385 25.3788C12.669 25.0783 12.5776 24.7406 12.5727 24.3962C12.5772 23.7876 12.7784 23.1965 13.1467 22.7096C13.3265 22.4523 13.5387 22.2188 13.778 22.0146C14.0643 21.7828 14.3867 21.5987 14.7326 21.4694C15.4999 21.1698 16.5451 21.023 18.0917 20.9931C19.9042 20.9571 22.3843 21.0889 25.9459 21.3975C27.7031 21.5604 29.4676 21.6323 31.2324 21.6132C33.3197 21.5712 34.5825 21.3376 35.3256 21.1009C35.6863 21.0143 36.0215 20.845 36.3043 20.6066V20.4089C36.2939 19.9763 36.2464 19.5454 36.1623 19.1207C36.0698 18.6392 35.9112 18.1726 35.6911 17.7337C35.0612 18.0614 34.3849 18.2927 33.6853 18.4197C33.6494 18.4267 33.6124 18.4266 33.5766 18.4193C33.5407 18.4121 33.5067 18.3979 33.4763 18.3776C33.446 18.3573 33.4201 18.3312 33.3999 18.3009C33.3798 18.2706 33.3659 18.2367 33.359 18.2011C33.3516 18.1656 33.3513 18.1291 33.3582 18.0935C33.3651 18.058 33.3791 18.0242 33.3994 17.9941C33.4196 17.9639 33.4457 17.9381 33.4761 17.9181C33.5065 17.8981 33.5407 17.8843 33.5765 17.8775C34.3141 17.742 35.0218 17.4783 35.6669 17.0986C36.0328 16.8787 36.3646 16.6073 36.6517 16.2928C37.0914 15.8053 37.41 15.2226 37.5821 14.5912C37.6154 14.4774 37.6365 14.3875 37.6546 14.3186C37.6649 14.2784 37.67 14.2372 37.6697 14.1958C37.6705 14.1484 37.658 14.1017 37.6335 14.061L37.5882 14.0939Z" fill="#7E4D9F"/>
  <path d="M37.3918 13.5637C37.4072 13.5383 37.4194 13.5111 37.4281 13.4828C37.4577 13.3735 37.47 13.2603 37.4643 13.1473C37.469 13.0744 37.469 13.0014 37.4643 12.9286C37.0958 13.0304 36.6578 13.1532 36.1472 13.2701C35.5254 13.4107 34.8961 13.5167 34.2622 13.5876C33.9582 13.9485 33.5841 14.245 33.1622 14.4596C32.7403 14.6742 32.2792 14.8025 31.8063 14.8368C33.727 14.7731 35.6181 14.3493 37.3797 13.5876C37.385 13.5803 37.389 13.5722 37.3918 13.5637Z" fill="white"/>
  <path d="M38.4008 11.7333L38.2951 11.6764L38.2618 11.5625C37.9438 10.2823 37.1986 9.14629 36.1472 8.33912C35.1171 7.56023 33.7306 7.0929 32.0057 7.02399C31.8818 7.02399 31.764 7.02399 31.6432 7.02399C30.2921 7.06851 28.9892 7.53272 27.9185 8.3511C27.4486 8.70068 27.0209 9.10276 26.6437 9.54939C27.0567 10.1616 27.3687 10.8351 27.5681 11.5445L27.5923 11.5595C27.6816 11.62 27.7637 11.6903 27.8369 11.7692C27.9015 11.8371 27.9528 11.9164 27.988 12.0029C28.0109 12.0623 28.0242 12.125 28.0273 12.1886C28.0277 12.2856 28.0016 12.3808 27.9517 12.4642C27.8976 12.5485 27.8266 12.6208 27.7433 12.6769C27.7162 12.6956 27.688 12.7127 27.6587 12.7279C29.2508 13.035 30.8702 13.1805 32.492 13.1622C33.6685 13.1416 34.8397 13.0011 35.9871 12.7428C36.5913 12.608 37.0716 12.4642 37.4976 12.3474C37.5277 12.3265 37.5615 12.3113 37.5972 12.3025C37.6243 12.2995 37.6517 12.2995 37.6788 12.3025L38.0896 12.1976C38.2194 12.1698 38.3467 12.1318 38.4703 12.0838C38.5328 12.0605 38.591 12.0271 38.6424 11.9849C38.6176 11.9501 38.5882 11.9189 38.5548 11.8921C38.5091 11.834 38.4575 11.7808 38.4008 11.7333Z" fill="#7E4D9F"/>
  <path d="M39.0684 4.74424C37.7985 3.5223 36.2834 2.57916 34.6217 1.97619C33.7568 1.66539 32.8408 1.51806 31.9211 1.54181C30.6624 1.5843 29.4244 1.87238 28.278 2.3896C30.8875 3.35433 33.2059 4.96274 35.0144 7.06293C35.547 7.27468 36.0489 7.55576 36.5067 7.89874C37.2754 8.47674 37.8963 9.22585 38.3192 10.0856C38.3887 10.0856 38.4793 10.0856 38.5881 10.0856C38.9385 10.0809 39.2864 10.0264 39.6212 9.92385C40.0034 9.81299 40.342 9.58811 40.5909 9.27977C40.7799 9.02567 40.8996 8.72745 40.9383 8.41401C40.9561 8.30208 40.9632 8.18874 40.9594 8.07549C40.9243 7.50585 40.7513 6.953 40.4549 6.46379C40.0744 5.83033 39.6078 5.25174 39.0684 4.74424Z" fill="#7E4D9F"/>
  <path d="M14.2341 14.3665C14.5815 14.4324 15.08 14.5163 15.6841 14.6002C16.9546 14.7776 18.2348 14.8776 19.5176 14.8998C19.1788 14.8327 18.8675 14.6678 18.623 14.4258C18.3784 14.1838 18.2115 13.8755 18.1431 13.5397C16.7767 13.4112 15.4197 13.1981 14.0801 12.9016C14.0636 13.3946 14.1155 13.8875 14.2341 14.3665Z" fill="white"/>
  <path d="M23.354 13.5457C22.8709 14.1602 22.2084 14.6122 21.4569 14.8398C23.0732 14.7621 24.6644 14.4136 26.1634 13.8093C26.1731 13.8045 26.1815 13.7973 26.1876 13.7883C26.206 13.7631 26.2193 13.7347 26.2268 13.7045C26.2563 13.5962 26.2686 13.484 26.2631 13.3719C26.261 13.2857 26.254 13.1997 26.2419 13.1143C25.8764 13.1892 25.4414 13.2731 24.9339 13.351C24.4264 13.4289 23.9431 13.4948 23.354 13.5457Z" fill="white"/>
  <path d="M40.9202 6.19717C40.285 5.1531 39.4557 4.23816 38.4763 3.50101C37.3738 2.6366 36.1401 1.95105 34.8211 1.46991C33.8913 1.13598 32.9067 0.977477 31.9181 1.00258C30.3867 1.04674 28.886 1.43929 27.5318 2.14994C25.5444 1.53513 23.4686 1.24871 21.3875 1.30215C19.5184 1.32939 17.6617 1.60856 15.8684 2.13197C14.642 1.74246 13.3587 1.5582 12.0712 1.58674C9.85243 1.66239 7.6813 2.24577 5.72749 3.29131C4.89809 3.71904 4.10946 4.22038 3.37125 4.78918C2.79004 5.22965 2.25924 5.73193 1.78833 6.28704C1.28154 6.91097 0.857202 7.59655 0.525624 8.32713C0.196547 9.01 0.0173901 9.75437 0 10.511C0.00152411 10.8114 0.0588714 11.109 0.169167 11.3888C0.253236 11.5969 0.373931 11.7886 0.525624 11.955C0.779256 12.2232 1.09884 12.4214 1.45302 12.5301C1.90246 12.6681 2.37259 12.7279 2.8426 12.7069C3.01781 12.7069 3.2051 12.7069 3.39843 12.6739C4.05164 12.6057 4.69507 12.465 5.31666 12.2545C5.18176 13.3757 5.12624 14.5049 5.15051 15.6337C5.19583 17.8476 5.55228 20.7115 6.80593 23.3687C7.44598 24.7539 8.33676 26.0109 9.43405 27.0774C10.692 28.2767 12.1936 29.1959 13.8384 29.7735C16.3978 30.7233 19.1143 31.1877 21.8466 31.1426C24.7233 31.0711 27.5583 30.4443 30.1932 29.2972C31.136 28.8909 32.0548 28.4318 32.9452 27.9222C33.6581 27.5178 34.1988 27.1733 34.5432 26.9725C35.2685 26.8523 35.9778 26.6513 36.6578 26.3734C37.0466 26.2174 37.4015 25.9886 37.703 25.6994C37.8283 25.5673 37.9304 25.4155 38.0051 25.25C38.0792 25.0841 38.1163 24.9042 38.1138 24.7227C38.1022 24.4629 38.0264 24.2099 37.8933 23.9858C37.7847 23.8007 37.656 23.628 37.5096 23.4705C37.6674 23.3431 37.8057 23.1938 37.9205 23.0272C38.161 22.6981 38.2949 22.3041 38.3041 21.8978C38.3004 21.6744 38.2391 21.4558 38.1259 21.2627C37.961 21.0044 37.7266 20.7969 37.4492 20.6635C37.2703 20.5707 37.0791 20.5032 36.8813 20.4628C36.8797 20.4379 36.8797 20.4129 36.8813 20.3879C36.8715 19.9221 36.8209 19.4581 36.7303 19.0009C36.6248 18.4571 36.4428 17.9307 36.1895 17.4371C36.8345 17.005 37.3641 16.4242 37.7332 15.7446C37.868 15.4901 37.9802 15.2245 38.0685 14.9507C38.141 14.729 38.1803 14.5523 38.2014 14.4684C38.2264 14.3797 38.2386 14.2879 38.2377 14.1958C38.2355 14.0778 38.2087 13.9615 38.1591 13.8542C38.1132 13.7593 38.0508 13.6731 37.9748 13.5996C37.9823 13.574 37.9884 13.548 37.993 13.5217C38.0163 13.3963 38.0264 13.2688 38.0232 13.1413C38.0203 13.02 38.0102 12.8989 37.993 12.7788L38.2226 12.7219C38.4788 12.6751 38.7238 12.5806 38.9445 12.4433C39.0292 12.3887 39.1004 12.3161 39.153 12.2306C39.2041 12.1477 39.2303 12.0521 39.2285 11.955C39.2254 11.8914 39.2122 11.8287 39.1892 11.7692C39.1531 11.6838 39.1031 11.6049 39.0412 11.5356C38.9669 11.4575 38.8838 11.3881 38.7935 11.3289L38.7693 11.3109C38.7029 11.0832 38.6304 10.8615 38.5458 10.6458H38.579C39.1461 10.644 39.7057 10.5161 40.2163 10.2714C40.5283 10.1173 40.801 9.89506 41.0138 9.62129C41.2578 9.29255 41.4146 8.90833 41.4699 8.50388C41.4911 8.36008 41.5002 8.21479 41.4971 8.0695C41.4616 7.40807 41.2635 6.76529 40.9202 6.19717ZM37.558 24.7407C37.5612 24.8439 37.5406 24.9463 37.4976 25.0403C37.3927 25.2458 37.2342 25.4197 37.0384 25.5436C36.5739 25.8402 36.0637 26.0597 35.528 26.1937C34.8203 26.3832 34.0993 26.5204 33.3711 26.6041C32.97 26.6513 32.5667 26.6773 32.1628 26.682C30.6524 26.7119 28.6918 26.5681 26.5591 26.4273C24.4264 26.2865 22.1366 26.1487 19.9858 26.1907H19.5327C19.5327 26.0558 19.5327 25.933 19.5327 25.8342C19.5466 25.6476 19.5969 25.4655 19.6807 25.2979C19.8098 25.0256 19.9721 24.7701 20.164 24.537C20.2426 24.4352 20.3151 24.3513 20.3664 24.2944L20.4268 24.2314L20.445 24.2165L20.4752 24.1865L20.8981 24.1566C21.1609 24.1566 21.5023 24.1296 21.9373 24.1206C23.3117 24.0936 25.5109 24.1206 28.426 24.3273C30.1932 24.4531 31.7308 24.519 33.0328 24.4921C34.0764 24.5009 35.1173 24.3832 36.1321 24.1416C36.4465 24.0586 36.7504 23.9411 37.0384 23.7911C37.1791 23.9336 37.3018 24.0925 37.4039 24.2644C37.4935 24.4084 37.5464 24.5719 37.558 24.7407ZM18.9889 26.5082C18.9889 26.655 18.9889 26.8078 18.9889 26.9636C19.007 27.3477 18.9908 27.7326 18.9406 28.1139C18.9262 28.2318 18.8914 28.3463 18.8379 28.4524C18.8272 28.4728 18.8128 28.491 18.7956 28.5064H18.7805C18.7623 28.5061 18.7446 28.5009 18.7291 28.4914C18.6456 28.4402 18.5753 28.3705 18.5237 28.2877C18.3721 28.0631 18.2541 27.8179 18.1733 27.5597C18.0658 27.2351 17.9899 26.9011 17.9467 26.5621C17.9199 26.3785 17.9048 26.1934 17.9014 26.0079C17.9014 25.936 17.9014 25.8641 17.9014 25.7922C17.9075 25.4737 17.9307 25.1557 17.9709 24.8396C17.9944 24.625 18.043 24.4139 18.1159 24.2105C18.1536 24.1076 18.211 24.013 18.2851 23.9319C18.3385 23.8783 18.4069 23.8418 18.4814 23.827C18.5728 23.8079 18.6659 23.7979 18.7593 23.7971C18.8685 23.7965 18.9775 23.8035 19.0856 23.818C19.2128 23.8346 19.341 23.8426 19.4692 23.842C19.588 23.8358 19.7056 23.8157 19.8197 23.7821C19.8377 23.7796 19.856 23.7796 19.874 23.7821H19.9042C19.9114 23.7892 19.9174 23.7973 19.9224 23.8061C19.9404 23.8387 19.9527 23.8742 19.9586 23.9109V23.9289C19.8054 24.0964 19.6631 24.2735 19.5327 24.4591C19.3905 24.6561 19.2672 24.8657 19.1641 25.0852C19.0541 25.3179 18.9886 25.5688 18.9708 25.8252C18.9708 25.954 18.9708 26.0978 18.9708 26.2536C18.9859 26.3285 18.9889 26.4123 18.9889 26.5082ZM36.7182 21.0021C36.9557 21.0422 37.1809 21.1355 37.3767 21.2747C37.4865 21.3547 37.5781 21.4568 37.6456 21.5742C37.7116 21.6863 37.7479 21.813 37.7513 21.9427C37.7359 22.2374 37.6306 22.5206 37.4492 22.7546C37.308 22.9614 37.1209 23.1335 36.9025 23.2578C36.4339 23.5161 35.9223 23.6887 35.392 23.7671C34.6142 23.8958 33.8274 23.9639 33.0388 23.9708C31.764 23.9948 30.2415 23.9319 28.4834 23.8061C25.5532 23.5964 23.348 23.5724 21.9433 23.5993C21.4147 23.5993 21.0068 23.6263 20.7199 23.6443L20.4752 23.6623C20.4704 23.6468 20.4644 23.6318 20.4571 23.6173C20.4136 23.517 20.3449 23.4293 20.2577 23.3627C20.1486 23.2828 20.0156 23.2417 19.8801 23.2459C19.8241 23.2469 19.7684 23.254 19.7139 23.2668C19.6356 23.2845 19.5556 23.2946 19.4753 23.2968C19.3742 23.2966 19.2733 23.2896 19.1732 23.2758C19.0402 23.2565 18.9059 23.2475 18.7714 23.2488C18.6436 23.2523 18.5163 23.2663 18.3908 23.2908C18.2096 23.3265 18.0434 23.4152 17.9135 23.5454C17.8256 23.6326 17.7531 23.7339 17.699 23.845H17.5994C17.3547 23.845 16.971 23.863 16.536 23.9109C16.0689 23.96 15.607 24.0492 15.1555 24.1775C15.1204 24.188 15.0877 24.2051 15.0593 24.2281C15.0309 24.251 15.0073 24.2793 14.9899 24.3113C14.9725 24.3433 14.9616 24.3784 14.9579 24.4145C14.9542 24.4507 14.9577 24.4872 14.9682 24.522C14.9787 24.5569 14.996 24.5893 15.0192 24.6175C15.0423 24.6456 15.0709 24.669 15.1031 24.6863C15.1354 24.7035 15.1707 24.7143 15.2072 24.718C15.2437 24.7217 15.2805 24.7182 15.3156 24.7078C15.7344 24.5885 16.163 24.5063 16.5964 24.4621C16.9529 24.4232 17.2701 24.4052 17.5027 24.3992C17.4755 24.522 17.4513 24.6479 17.4332 24.7887C17.3939 25.0882 17.3698 25.4178 17.3577 25.7952C17.3577 25.8761 17.3577 25.957 17.3577 26.0409C17.3577 26.1248 17.3577 26.2536 17.3577 26.3614L16.9166 26.3794C15.4515 26.4093 14.4849 26.1517 13.8958 25.7802C13.6447 25.625 13.437 25.4097 13.2916 25.1541C13.1688 24.9327 13.1024 24.6849 13.0983 24.4322C13.1027 23.9425 13.267 23.4674 13.5665 23.0781C13.7278 22.8468 13.9199 22.6382 14.1375 22.458C14.5377 22.1474 15.0051 21.9331 15.5029 21.8319C16.3597 21.6501 17.2337 21.5597 18.1099 21.5623C19.871 21.5263 22.339 21.6581 25.9157 21.9637C27.6928 22.1306 29.4776 22.2036 31.2626 22.1824C33.6792 22.1344 35.0446 21.8379 35.824 21.5353C36.1092 21.4354 36.3764 21.2907 36.6155 21.1069C36.6578 21.047 36.688 21.017 36.7182 20.9901V21.0021ZM37.6637 14.3366C37.6456 14.4055 37.6244 14.4953 37.5912 14.6092C37.4191 15.2405 37.1005 15.8233 36.6608 16.3107C36.3736 16.6252 36.0419 16.8967 35.676 17.1166C35.0309 17.4962 34.3232 17.7599 33.5856 17.8955C33.5497 17.9023 33.5156 17.9161 33.4852 17.9361C33.4548 17.9561 33.4287 17.9819 33.4084 18.012C33.3882 18.0422 33.3742 18.076 33.3673 18.1115C33.3603 18.147 33.3606 18.1836 33.3681 18.219C33.375 18.2547 33.3889 18.2886 33.409 18.3189C33.4291 18.3492 33.4551 18.3752 33.4854 18.3956C33.5157 18.4159 33.5498 18.4301 33.5856 18.4373C33.6215 18.4445 33.6584 18.4447 33.6943 18.4377C34.4026 18.3051 35.0862 18.0657 35.7213 17.7277C35.9414 18.1666 36.1 18.6333 36.1926 19.1147C36.2766 19.5394 36.3241 19.9703 36.3345 20.4029V20.6006C36.0517 20.839 35.7165 21.0083 35.3558 21.0949C34.6127 21.3316 33.35 21.5653 31.2626 21.6072C29.4978 21.6264 27.7333 21.5544 25.9761 21.3915C22.4025 21.0919 19.9073 20.9511 18.122 20.9871C16.5662 21.017 15.5301 21.1728 14.7628 21.4634C14.4059 21.5916 14.0731 21.7779 13.778 22.0146C13.523 22.2246 13.2975 22.4674 13.1074 22.7366C12.7391 23.2235 12.538 23.8146 12.5334 24.4232C12.5384 24.7675 12.6297 25.1052 12.7993 25.4058C13.1267 25.9253 13.6267 26.3152 14.213 26.5082C15.085 26.8123 16.0087 26.9436 16.9317 26.8946C17.0949 26.8946 17.264 26.8947 17.4362 26.8737C17.5132 27.3364 17.6524 27.7868 17.8501 28.2128C17.9441 28.4206 18.0716 28.6118 18.2277 28.779C18.3009 28.8544 18.3855 28.9181 18.4784 28.9677C18.5716 29.0164 18.6752 29.042 18.7805 29.0426C18.8137 29.0456 18.847 29.0456 18.8802 29.0426C18.9792 29.0243 19.0718 28.9809 19.149 28.9168C19.2696 28.812 19.3584 28.6762 19.4058 28.5243C19.4826 28.2826 19.5263 28.0317 19.5357 27.7784C19.5538 27.5058 19.5538 27.2152 19.5357 26.9336C19.5357 26.8737 19.5357 26.8108 19.5357 26.7509H19.9888C22.1034 26.7089 24.3841 26.8437 26.5138 26.9845C28.6435 27.1253 30.6221 27.2691 32.1658 27.2392C32.5011 27.2392 32.8153 27.2182 33.1083 27.1912C32.9633 27.2781 32.8062 27.368 32.6431 27.4608C30.4651 28.7011 26.6769 30.5105 21.8104 30.6064C19.1472 30.6504 16.4994 30.1982 14.0046 29.2733C12.4336 28.7185 10.9993 27.8394 9.79655 26.6939C8.25823 25.1655 7.13576 23.2752 6.53405 21.1998C5.99484 19.3918 5.7092 17.5189 5.6852 15.6337C5.66646 14.7339 5.69874 13.8338 5.78187 12.9376C5.81208 12.608 5.8453 12.3384 5.86947 12.1706C5.86947 12.1257 5.86947 12.0868 5.86947 12.0508C6.18968 11.928 6.50385 11.7902 6.81197 11.6404C8.30004 10.8908 9.68991 9.96317 10.9505 8.87834C11.5442 8.3812 12.1109 7.85321 12.6482 7.2966C12.6857 7.27555 12.7179 7.24622 12.7422 7.21088C12.7664 7.17553 12.7822 7.13512 12.7881 7.09277C12.7941 7.05043 12.7902 7.00728 12.7767 6.96668C12.7632 6.92608 12.7404 6.88912 12.7101 6.85864C12.6799 6.82817 12.643 6.80501 12.6023 6.79096C12.5615 6.77691 12.5181 6.77234 12.4753 6.77761C12.4325 6.78288 12.3915 6.79784 12.3555 6.82135C12.3195 6.84485 12.2894 6.87626 12.2676 6.91315C11.3822 7.83168 10.4201 8.67448 9.39176 9.43255C8.50102 10.0985 7.54933 10.6802 6.54916 11.1701C5.54369 11.6737 4.45677 11.9982 3.33802 12.1287C3.15677 12.1437 2.9876 12.1557 2.8275 12.1587C2.45819 12.1728 2.08878 12.1335 1.73094 12.0418C1.37016 11.9597 1.04964 11.7552 0.824687 11.4637C0.636182 11.1794 0.539258 10.8451 0.546771 10.505C0.563569 9.82861 0.726319 9.16361 1.02406 8.55481C1.33371 7.86772 1.73174 7.22328 2.20823 6.63754C2.65759 6.11154 3.16413 5.63633 3.71864 5.22056C4.82372 4.35919 6.04361 3.6535 7.34364 3.12355C8.84746 2.50411 10.4526 2.16199 12.0803 2.11399C13.3353 2.08638 14.5858 2.27179 15.7778 2.66221L15.8684 2.68917L15.956 2.65921C17.7208 2.13324 19.5509 1.85394 21.3935 1.8294C23.6178 1.7686 25.8345 2.11281 27.9336 2.84495C30.21 3.66452 32.2636 4.99659 33.933 6.7364C33.3117 6.5894 32.6772 6.5041 32.0389 6.48176C31.906 6.48176 31.7761 6.48176 31.6462 6.48176C30.1694 6.52917 28.7454 7.03764 27.5772 7.93469C27.1148 8.27531 26.6913 8.66508 26.3144 9.09703C26.0178 8.73701 25.6791 8.4132 25.3055 8.13241C24.1697 7.27563 22.6743 6.77834 20.8498 6.70644C20.7229 6.70644 20.599 6.70644 20.4782 6.70644C19.6604 6.72571 18.8537 6.89853 18.1008 7.21572C17.1966 7.60109 16.3675 8.14048 15.6509 8.80944C15.3286 9.10098 15.0325 9.41973 14.7658 9.76209C14.744 9.7912 14.7282 9.82428 14.7192 9.85946C14.7103 9.89464 14.7085 9.93121 14.7138 9.9671C14.7191 10.003 14.7315 10.0375 14.7503 10.0686C14.7691 10.0997 14.7939 10.1269 14.8232 10.1485C14.8526 10.1702 14.8859 10.1859 14.9214 10.1947C14.9569 10.2036 14.9938 10.2054 15.0299 10.2001C15.0661 10.1948 15.1009 10.1825 15.1323 10.1639C15.1637 10.1453 15.1911 10.1207 15.2129 10.0916C15.6399 9.5558 16.1354 9.07745 16.6871 8.66864C17.1954 8.28208 17.7518 7.96191 18.3425 7.716C19.0219 7.43437 19.7481 7.27998 20.4842 7.26065H20.8256C22.5626 7.32955 23.934 7.79988 24.9672 8.57578C26.0172 9.38408 26.7621 10.5196 27.0817 11.7992L27.115 11.916L27.2177 11.9699C27.2774 12.0039 27.334 12.043 27.3868 12.0868C27.42 12.1138 27.4495 12.145 27.4744 12.1796C27.4227 12.2207 27.3646 12.2531 27.3023 12.2755C27.1778 12.3246 27.0495 12.3637 26.9186 12.3923C26.4806 12.4912 25.7949 12.653 24.8735 12.7938C23.7358 12.971 22.5872 13.0711 21.4358 13.0933C18.9754 13.1306 16.5193 12.8772 14.1194 12.3384C14.0837 12.3305 14.0467 12.3297 14.0107 12.336C13.9747 12.3423 13.9403 12.3555 13.9094 12.375C13.8786 12.3945 13.8519 12.4198 13.8309 12.4495C13.8099 12.4792 13.795 12.5127 13.7871 12.5481C13.7791 12.5835 13.7783 12.6201 13.7846 12.6559C13.791 12.6916 13.8043 12.7257 13.824 12.7563C13.8436 12.7869 13.8691 12.8134 13.8991 12.8342C13.929 12.855 13.9628 12.8698 13.9985 12.8776L14.0952 12.8956C15.434 13.1889 16.79 13.3991 18.1552 13.5247C18.2216 13.8601 18.3863 14.1685 18.6287 14.4115C18.871 14.6545 19.1802 14.8212 19.5176 14.8908C18.2348 14.8686 16.9546 14.7686 15.6841 14.5912C15.08 14.5073 14.5815 14.4234 14.2341 14.3575L13.8354 14.2796L13.7327 14.2557H13.7055C13.6334 14.2394 13.5577 14.2522 13.4951 14.2912C13.4325 14.3303 13.3881 14.3924 13.3717 14.4639C13.3553 14.5354 13.3682 14.6104 13.4075 14.6725C13.4469 14.7346 13.5095 14.7786 13.5816 14.7949C15.8191 15.2531 18.1001 15.4691 20.3846 15.439C22.3421 15.4 24.4325 15.1394 26.245 14.3845L26.2691 14.4204C26.2978 14.4666 26.3144 14.5191 26.3175 14.5732C26.3185 14.5932 26.3185 14.6132 26.3175 14.6331C26.2795 14.7352 26.2362 14.8352 26.1876 14.9327C25.8216 15.6526 25.3237 16.2987 24.7194 16.838C23.8401 17.6374 22.7436 18.1634 21.5657 18.3508C20.994 18.4425 20.4167 18.4955 19.8378 18.5096C18.9983 18.5399 18.1593 18.4388 17.3516 18.21C17.1512 18.1489 16.9554 18.0738 16.7656 17.9854L16.6266 17.9165L16.5964 17.8985C16.5349 17.8642 16.4624 17.8544 16.3939 17.8712C16.3253 17.888 16.2658 17.93 16.2273 17.9887C16.1888 18.0474 16.1744 18.1185 16.1868 18.1874C16.1993 18.2563 16.2377 18.318 16.2944 18.3598C16.3336 18.3868 17.4755 19.1147 19.8589 19.0638C20.4663 19.0513 21.0719 18.9962 21.6714 18.8991C22.5129 18.7675 23.3205 18.4745 24.0488 18.0363C24.8856 17.5164 25.6054 16.8311 26.1634 16.0232C26.3577 15.7455 26.5294 15.453 26.6769 15.1484C26.7267 15.0452 26.77 14.9392 26.8068 14.8309C26.8203 14.7926 26.8314 14.7536 26.8401 14.714C27.3572 14.7962 27.8585 14.9569 28.3263 15.1903C28.8601 15.4584 29.3386 15.8232 29.737 16.2658C30.2537 16.8528 30.6342 17.5452 30.8517 18.2939C30.8786 18.3576 30.9284 18.4091 30.9914 18.4384C31.0545 18.4677 31.1262 18.4728 31.1928 18.4527C31.2594 18.4325 31.316 18.3886 31.3518 18.3294C31.3876 18.2701 31.3999 18.1999 31.3864 18.1321C31.1421 17.2959 30.7128 16.5243 30.1298 15.8734C29.9444 15.6676 29.7423 15.4772 29.5256 15.3042C30.2094 15.3822 30.8977 15.4142 31.5858 15.4C33.6543 15.3594 35.6946 14.9167 37.5912 14.0969L37.6456 14.0699C37.6701 14.1107 37.6826 14.1573 37.6818 14.2047C37.6808 14.2453 37.6747 14.2855 37.6637 14.3246V14.3366ZM26.8159 13.1233C27.6557 13.3 28.4441 13.4229 29.1812 13.5247C29.3171 14.007 29.7491 14.7679 31.1176 14.8578C30.4257 14.8523 29.7352 14.7972 29.0513 14.6931C28.7492 14.6481 28.5136 14.6002 28.3565 14.5642L28.1753 14.5193H28.13C28.0091 14.4714 27.8913 14.4294 27.7795 14.3935C27.4387 14.2825 27.0875 14.2052 26.7313 14.1628L26.683 14.0909C26.7448 13.9908 26.7868 13.88 26.8068 13.7644C26.8292 13.6388 26.8383 13.5113 26.834 13.3839C26.8338 13.2928 26.8277 13.2017 26.8159 13.1113V13.1233ZM26.2752 13.3839C26.2807 13.496 26.2684 13.6082 26.2389 13.7164C26.2314 13.7466 26.218 13.7751 26.1997 13.8003C26.1935 13.8093 26.1852 13.8165 26.1755 13.8213C24.6727 14.4269 23.0772 14.7754 21.4569 14.8518C22.2084 14.6241 22.8709 14.1722 23.354 13.5577C23.9582 13.5067 24.4748 13.4378 24.946 13.3629C25.4173 13.2881 25.8885 13.2012 26.254 13.1263C26.2656 13.2077 26.2727 13.2897 26.2752 13.3719V13.3839ZM31.7912 14.8249C32.2641 14.7905 32.7252 14.6622 33.1471 14.4476C33.569 14.233 33.9431 13.9365 34.2471 13.5756C34.881 13.5048 35.5103 13.3987 36.1321 13.2581C36.6427 13.1413 37.0807 13.0184 37.4492 12.9166C37.4539 12.9894 37.4539 13.0625 37.4492 13.1353C37.4549 13.2483 37.4426 13.3615 37.413 13.4708C37.4043 13.4991 37.3921 13.5263 37.3767 13.5517C37.3694 13.5614 37.3601 13.5696 37.3495 13.5756C35.5926 14.3354 33.7068 14.7593 31.7912 14.8249ZM38.6545 11.928C38.603 11.9702 38.5449 12.0036 38.4823 12.0269C38.3587 12.0749 38.2315 12.1129 38.1017 12.1407L37.6909 12.2455C37.6638 12.2426 37.6364 12.2426 37.6093 12.2455C37.5736 12.2544 37.5398 12.2696 37.5096 12.2905C37.0958 12.4073 36.6034 12.5511 35.9992 12.6859C34.8518 12.9442 33.6806 13.0847 32.5041 13.1053C30.8853 13.1422 29.2669 13.0157 27.6738 12.7279C27.7031 12.7127 27.7313 12.6956 27.7584 12.6769C27.8418 12.6208 27.9127 12.5485 27.9668 12.4642C28.0167 12.3808 28.0428 12.2856 28.0424 12.1886C28.0393 12.125 28.026 12.0623 28.0031 12.0029C27.9679 11.9163 27.9166 11.8371 27.852 11.7692C27.7788 11.6903 27.6967 11.62 27.6074 11.5595L27.5832 11.5445C27.3838 10.8351 27.0718 10.1616 26.6588 9.54939C27.036 9.10275 27.4637 8.70068 27.9336 8.3511C29.005 7.5376 30.3066 7.07766 31.6553 7.03597C31.7761 7.03597 31.8939 7.03597 32.0178 7.03597C33.7547 7.10487 35.1292 7.57221 36.1593 8.3511C37.2106 9.15827 37.9559 10.2943 38.2739 11.5745L38.3071 11.6883L38.4129 11.7453C38.4717 11.778 38.5273 11.8161 38.579 11.8591C38.6073 11.883 38.6327 11.9102 38.6545 11.94V11.928ZM40.9171 8.40502C40.8784 8.71846 40.7588 9.01668 40.5697 9.27079C40.3209 9.57913 39.9823 9.804 39.6 9.91487C39.2652 10.0174 38.9173 10.0719 38.5669 10.0766C38.4582 10.0766 38.3676 10.0766 38.2981 10.0766C37.8751 9.21686 37.2542 8.46775 36.4856 7.88976C36.0277 7.54677 35.5259 7.2657 34.9933 7.05395C33.1848 4.95375 30.8663 3.34535 28.2568 2.38061C29.4088 1.8611 30.6532 1.57296 31.9181 1.53282C32.8377 1.50907 33.7538 1.65641 34.6187 1.9672C36.2772 2.5713 37.7891 3.51437 39.0563 4.73526C39.5885 5.24504 40.0479 5.82459 40.4217 6.4578C40.7181 6.94701 40.8911 7.49986 40.9262 8.0695C40.9345 8.18535 40.9315 8.30173 40.9171 8.417V8.40502Z" fill="black"/>
</svg>